<mxfile host="Electron" modified="2025-05-27T04:38:20.857Z" agent="Mozilla/5.0 (Windows NT 10.0; Win64; x64) AppleWebKit/537.36 (KHTML, like Gecko) draw.io/21.6.5 Chrome/114.0.5735.243 Electron/25.3.1 Safari/537.36" version="21.6.5" etag="q4SPGKwFcjEnileqFCa5" type="device">
  <diagram name="Register Process Flow" id="processFlow">
    <mxGraphModel dx="2103" dy="606" grid="1" gridSize="10" guides="1" tooltips="1" connect="1" arrows="1" fold="1" page="1" pageScale="1" pageWidth="827" pageHeight="1169" math="0" shadow="0">
      <root>
        <mxCell id="0" />
        <mxCell id="1" parent="0" />
        <mxCell id="2" value="Người dùng mở form Đăng ký" style="rounded=1;whiteSpace=wrap;html=1;fillColor=#dae8fc;" parent="1" vertex="1">
          <mxGeometry x="200" y="60" width="160" height="60" as="geometry" />
        </mxCell>
        <mxCell id="3" value="Nhập thông tin: Họ, Tên, Ngày sinh, Giới tính, Username, Password" style="rounded=1;whiteSpace=wrap;html=1;fillColor=#e1d5e7;" parent="1" vertex="1">
          <mxGeometry x="160" y="140" width="240" height="80" as="geometry" />
        </mxCell>
        <mxCell id="4" value="Nhấn nút Đăng ký" style="rounded=1;whiteSpace=wrap;html=1;fillColor=#fff2cc;" parent="1" vertex="1">
          <mxGeometry x="200" y="250" width="160" height="60" as="geometry" />
        </mxCell>
        <mxCell id="5" value="Validate dữ liệu" style="rounded=1;whiteSpace=wrap;html=1;fillColor=#d5e8d4;" parent="1" vertex="1">
          <mxGeometry x="200" y="340" width="160" height="60" as="geometry" />
        </mxCell>
        <mxCell id="6" value="Thông báo lỗi (Invalid)" style="rounded=1;whiteSpace=wrap;html=1;fillColor=#f8cecc;" parent="1" vertex="1">
          <mxGeometry x="-50" y="340" width="160" height="60" as="geometry" />
        </mxCell>
        <mxCell id="7" value="Gửi dữ liệu lên backend" style="rounded=1;whiteSpace=wrap;html=1;fillColor=#dae8fc;" parent="1" vertex="1">
          <mxGeometry x="180" y="430" width="200" height="60" as="geometry" />
        </mxCell>
        <mxCell id="8" value="Kiểm tra username đã tồn tại?" style="rhombus;whiteSpace=wrap;html=1;fillColor=#fff2cc;" parent="1" vertex="1">
          <mxGeometry x="200" y="530" width="160" height="80" as="geometry" />
        </mxCell>
        <mxCell id="9" value="Username đã tồn tại" style="rounded=1;whiteSpace=wrap;html=1;fillColor=#f8cecc;" parent="1" vertex="1">
          <mxGeometry x="-70" y="540" width="160" height="60" as="geometry" />
        </mxCell>
        <mxCell id="10" value="Đăng ký thành công" style="rounded=1;whiteSpace=wrap;html=1;fillColor=#d5e8d4;" parent="1" vertex="1">
          <mxGeometry x="470" y="540" width="160" height="60" as="geometry" />
        </mxCell>
        <mxCell id="11" value="Chuyển sang màn hình tiếp theo" style="rounded=1;whiteSpace=wrap;html=1;fillColor=#e1d5e7;" parent="1" vertex="1">
          <mxGeometry x="450" y="700" width="200" height="60" as="geometry" />
        </mxCell>
        <mxCell id="a1" style="endArrow=block;" parent="1" source="2" target="3" edge="1">
          <mxGeometry relative="1" as="geometry" />
        </mxCell>
        <mxCell id="a2" style="endArrow=block;" parent="1" source="3" target="4" edge="1">
          <mxGeometry relative="1" as="geometry" />
        </mxCell>
        <mxCell id="a3" style="endArrow=block;" parent="1" source="4" target="5" edge="1">
          <mxGeometry relative="1" as="geometry" />
        </mxCell>
        <mxCell id="a4" style="endArrow=block;" parent="1" source="5" target="6" edge="1">
          <mxGeometry relative="1" as="geometry">
            <mxPoint x="100" y="320" as="targetPoint" />
          </mxGeometry>
        </mxCell>
        <mxCell id="a5" style="endArrow=block;" parent="1" source="5" target="7" edge="1">
          <mxGeometry relative="1" as="geometry" />
        </mxCell>
        <mxCell id="a6" style="endArrow=block;" parent="1" source="7" target="8" edge="1">
          <mxGeometry relative="1" as="geometry" />
        </mxCell>
        <mxCell id="a7" style="endArrow=block;" parent="1" source="8" target="9" edge="1">
          <mxGeometry relative="1" as="geometry" />
        </mxCell>
        <mxCell id="a8" style="endArrow=block;" parent="1" source="8" target="10" edge="1">
          <mxGeometry relative="1" as="geometry" />
        </mxCell>
        <mxCell id="a9" style="endArrow=block;" parent="1" source="10" target="11" edge="1">
          <mxGeometry relative="1" as="geometry" />
        </mxCell>
      </root>
    </mxGraphModel>
  </diagram>
</mxfile>
